<svg overflow="visible" width="148" height="105" viewBox="0 0 147.552 105.394" fill="none" xmlns="http://www.w3.org/2000/svg">
<path id="Vector" d="M126.196 10.434C112.541 3.60975 94.4134 0 73.7759 0C53.1384 0 35.0106 3.60975 21.3555 10.434C7.70036 17.2583 0 26.8623 0 36.888V68.5062C0 78.5318 7.78599 88.1688 21.3555 94.9601C34.925 101.751 53.1384 105.394 73.7759 105.394C94.4134 105.394 112.541 101.784 126.196 94.9601C139.851 88.1359 147.552 78.5318 147.552 68.5062V36.888C147.552 26.8623 139.766 17.2254 126.196 10.434ZM68.5062 73.6705V94.7494C55.9906 94.3409 45.4512 92.4966 36.888 89.8156V69.1979C47.2108 71.9483 57.8256 73.4543 68.5062 73.6837V73.6705ZM79.0456 73.6705C89.7262 73.4411 100.341 71.9351 110.664 69.1847V89.809C102.101 92.49 91.5612 94.3344 79.0456 94.7428V73.6705ZM10.5394 68.5062V56.3398C13.8562 59.092 17.4867 61.4423 21.3555 63.3419C22.9562 64.1389 24.6491 64.8899 26.3485 65.6013V85.6328C15.9211 80.4684 10.5394 73.9669 10.5394 68.5062ZM121.203 85.6328V65.6013C122.923 64.8899 124.596 64.1389 126.196 63.3419C130.065 61.4423 133.696 59.092 137.012 56.3398V68.5062C137.012 73.9669 131.631 80.4684 121.203 85.6328Z" fill="#FFC2B0"/>
</svg>
